<svg width="32" height="32" viewBox="0 0 32 32" fill="none" xmlns="http://www.w3.org/2000/svg">
  <defs>
    <!-- Gradient definitions -->
    <radialGradient id="ballGradient" cx="30%" cy="30%" r="70%">
      <stop offset="0%" style="stop-color:#ff6b35;stop-opacity:1" />
      <stop offset="70%" style="stop-color:#e53935;stop-opacity:1" />
      <stop offset="100%" style="stop-color:#c62828;stop-opacity:1" />
    </radialGradient>
    <filter id="shadow" x="-50%" y="-50%" width="200%" height="200%">
      <feDropShadow dx="1" dy="2" stdDeviation="2" flood-color="#000000" flood-opacity="0.3"/>
    </filter>
  </defs>
  
  <!-- Background circle with gradient and shadow -->
  <circle cx="16" cy="16" r="15" fill="url(#ballGradient)" filter="url(#shadow)"/>
  <circle cx="16" cy="16" r="15" fill="none" stroke="rgba(255,255,255,0.3)" stroke-width="0.5"/>
  
  <!-- Enhanced soccer ball pattern -->
  <path d="M16 4 L22 10 L16 16 L10 10 Z" fill="white" opacity="0.95"/>
  <path d="M16 16 L22 22 L16 28 L10 22 Z" fill="white" opacity="0.95"/>
  <path d="M10 10 L16 16 L10 22 L4 16 Z" fill="white" opacity="0.8"/>
  <path d="M22 10 L28 16 L22 22 L16 16 Z" fill="white" opacity="0.8"/>
  
  <!-- Morning sun with enhanced rays -->
  <circle cx="16" cy="16" r="2.5" fill="white"/>
  <g opacity="0.9">
    <line x1="16" y1="1" x2="16" y2="5" stroke="white" stroke-width="1.5" stroke-linecap="round"/>
    <line x1="24" y1="8" x2="22" y2="10" stroke="white" stroke-width="1.5" stroke-linecap="round"/>
    <line x1="24" y1="24" x2="22" y2="22" stroke="white" stroke-width="1.5" stroke-linecap="round"/>
    <line x1="16" y1="31" x2="16" y2="27" stroke="white" stroke-width="1.5" stroke-linecap="round"/>
    <line x1="8" y1="24" x2="10" y2="22" stroke="white" stroke-width="1.5" stroke-linecap="round"/>
    <line x1="8" y1="8" x2="10" y2="10" stroke="white" stroke-width="1.5" stroke-linecap="round"/>
  </g>
  
  <!-- Center highlight -->
  <circle cx="16" cy="16" r="1" fill="rgba(255,255,255,0.9)"/>
</svg>
